# xmcd
#
# Track frame offsets: 
#        150
#        24311
#        50640
#        66933
#        100916
#        103922
#        119764
#        149889
#        171759
#        190239
#        193313
#        226472
#        255011
#        275015
#        293897
#        318008
#
# Disc length: 4728 seconds
#
# Revision: 1
# Processed by: cddbd v1.5.2PL0 Copyright (c) Steve Scherf et al.
# Submitted via: ExactAudioCopyFreeDBPlugin 1.0
#
DISCID=f8127610
DTITLE=Bill Evans - Everybody Digs: Complete 1958-59 Winter Trio Sessi
DTITLE=ons
DYEAR=1958
DGENRE=Jazz
TTITLE0=Minority
TTITLE1=Young And Foolish
TTITLE2=Lucky To Be Me
TTITLE3=Night And Day
TTITLE4=Epilogue
TTITLE5=Tenderly
TTITLE6=Peace Piece
TTITLE7=What Is There To Say?
TTITLE8=Oleo
TTITLE9=Epilogue
TTITLE10=You And The Night And The Music
TTITLE11=How Am I To Know
TTITLE12=Woody'n You (Take1)
TTITLE13=Woody'n You (Take2)
TTITLE14=My Heart Stood Still
TTITLE15=On Green Dolphin Street
EXTD=YEAR: 1958
EXTT0=
EXTT1=
EXTT2=
EXTT3=
EXTT4=
EXTT5=
EXTT6=
EXTT7=
EXTT8=
EXTT9=
EXTT10=
EXTT11=
EXTT12=
EXTT13=
EXTT14=
EXTT15=
PLAYORDER=
